<?xml version="1.0" standalone="no"?><!-- Generator: Gravit.io --><svg xmlns="http://www.w3.org/2000/svg" xmlns:xlink="http://www.w3.org/1999/xlink" style="isolation:isolate" viewBox="0 0 560 315" width="560" height="315"><defs><clipPath id="_clipPath_5a4yhcnD36unk4fX1kFOLyDCqgqoUhSg"><rect width="560" height="315"/></clipPath></defs><g clip-path="url(#_clipPath_5a4yhcnD36unk4fX1kFOLyDCqgqoUhSg)"><rect x="144" y="105" width="276" height="119" transform="matrix(1,0,0,1,0,0)" fill="none"/><g><g transform="matrix(0.491,0,0,0.491,207.25,177)"><text transform="matrix(1,0,0,1,0,38.479)" style="font-family:'Open Sans';font-weight:400;font-size:36px;font-style:normal;fill:#999999;stroke:none;">Arch Linux</text></g><g transform="matrix(0.491,0,0,0.491,311.09,177)"><text transform="matrix(1,0,0,1,0,38.479)" style="font-family:'Open Sans';font-weight:700;font-size:36px;font-style:normal;fill:#000000;stroke:none;">Daily</text></g><rect x="302.621" y="177" width="0.982" height="24.07" transform="matrix(1,0,0,1,0,0)" fill="rgb(0,0,0)"/></g><g><g><defs><filter id="kmi2siySmjjz0YunaJCNbelc1N6JIrr6" x="-200%" y="-200%" width="400%" height="400%" filterUnits="objectBoundingBox" color-interpolation-filters="sRGB"><feGaussianBlur xmlns="http://www.w3.org/2000/svg" in="SourceGraphic" stdDeviation="2.146804531419514"/><feOffset xmlns="http://www.w3.org/2000/svg" dx="0" dy="0" result="pf_100_offsetBlur"/><feFlood xmlns="http://www.w3.org/2000/svg" flood-color="#000000" flood-opacity="0.35"/><feComposite xmlns="http://www.w3.org/2000/svg" in2="pf_100_offsetBlur" operator="in" result="pf_100_dropShadow"/><feBlend xmlns="http://www.w3.org/2000/svg" in="SourceGraphic" in2="pf_100_dropShadow" mode="normal"/></filter></defs><g filter="url(#kmi2siySmjjz0YunaJCNbelc1N6JIrr6)"><circle vector-effect="non-scaling-stroke" cx="282" cy="141" r="26" fill="rgb(96,132,217)"/></g><path d=" M 288.989 163.706 C 286.884 160.059 288.147 155.383 291.809 153.269 C 295.47 151.155 300.152 152.399 302.257 156.046 C 304.363 159.692 303.099 164.369 299.438 166.483 C 295.777 168.597 291.095 167.352 288.989 163.706 Z " fill="rgb(72,255,200)"/><circle vector-effect="non-scaling-stroke" cx="282.0000000000001" cy="141" r="22.999999999999943" fill="rgb(111,149,238)"/><circle vector-effect="non-scaling-stroke" cx="282.0000000000001" cy="141" r="21.27600000000001" fill="rgb(255,255,255)"/></g><path d=" M 281.998 127.294 C 280.987 129.772 280.378 131.392 279.252 133.797 C 279.942 134.528 280.789 135.379 282.164 136.341 C 280.686 135.733 279.677 135.122 278.924 134.488 C 277.484 137.493 275.227 141.773 270.649 150 C 274.248 147.923 277.037 146.642 279.637 146.153 C 279.525 145.673 279.462 145.154 279.466 144.612 L 279.47 144.496 C 279.527 142.191 280.727 140.418 282.147 140.538 C 283.568 140.659 284.672 142.626 284.615 144.932 C 284.604 145.366 284.556 145.783 284.47 146.17 C 287.041 146.673 289.801 147.951 293.351 150 C 292.651 148.711 292.026 147.55 291.43 146.443 C 290.49 145.715 289.51 144.767 287.51 143.741 C 288.884 144.098 289.868 144.51 290.635 144.97 C 284.569 133.676 284.078 132.175 281.998 127.294 Z " fill-rule="evenodd" fill="rgb(111,149,238)"/></g></g></svg>